{"title":"Temptation 2013 CAMRip XviD AC3 - TODE","uid":8372762,"size":734607353,"categoryP":"video","categoryS":"movies","magnet":"?xt=urn:btih:13c45cbea5a5793c7c309ef52240e821be180d50&amp;dn=Temptation+2013+CAMRip+XviD+AC3+-+TODE&amp;tr=udp%3A%2F%2Ftracker.openbittorrent.com%3A80&amp;tr=udp%3A%2F%2Fopen.demonii.com%3A1337&amp;tr=udp%3A%2F%2Ftracker.coppersurfer.tk%3A6969&amp;tr=udp%3A%2F%2Fexodus.desync.com%3A6969","seeders":1,"leechers":0,"uploader":"Gh0stNet","files":2,"time":1365962637,"description":"Director:\nTyler Perry\n\nWriter:\nTyler Perry\n\nStars:\nJurnee Smollett-Bell, Kim Kardashian, Vanessa Williams\n\nGenres:\nDrama\n\nCountry:\nUSA\n\nLanguage:\nEnglish\n\n\nThanks: JUSTiCE\n\n\nFormat                                   : AVI\nFormat/Info                              : Audio Video Interleave\nFile size                                : 701 MiB\nDuration                                 : 1h 46mn\nOverall bit rate                         : 921 Kbps\nWriting application                      : Lavf54.59.103\n\nVideo\nID                                       : 0\nFormat                                   : MPEG-4 Visual\nFormat profile                           : Simple@L3\nFormat settings, BVOP                    : No\nFormat settings, QPel                    : No\nFormat settings, GMC                     : No warppoints\nFormat settings, Matrix                  : Default (H.263)\nCodec ID                                 : XVID\nCodec ID/Hint                            : XviD\nDuration                                 : 1h 46mn\nBit rate                                 : 845 Kbps\nWidth                                    : 640 pixels\nHeight                                   : 320 pixels\nDisplay aspect ratio                     : 1.950\nFrame rate                               : 29.970 fps\nColor space                              : YUV\nChroma subsampling                       : 4:2:0\nBit depth                                : 8 bits\nScan type                                : Progressive\nCompression mode                         : Lossy\nBits/(Pixel*Frame)                       : 0.138\nStream size                              : 643 MiB (92%)\nWriting library                          : XviD 64\n\nAudio\nID                                       : 1\nFormat                                   : AC-3\nFormat/Info                              : Audio Coding 3\nMode extension                           : CM (complete main)\nFormat settings, Endianness              : Big\nCodec ID                                 : 2000\nDuration                                 : 1h 46mn\nBit rate mode                            : Constant\nBit rate                                 : 64.0 Kbps\nChannel(s)                               : 2 channels\nChannel positions                        : Front: L R\nSampling rate                            : 48.0 KHz\nBit depth                                : 16 bits\nCompression mode                         : Lossy\nStream size                              : 48.7 MiB (7%)\nAlignment                                : Aligned on interleaves\nInterleave, duration                     : 32 ms (0.96 video frame)\n\nScreens: &lt;a href=&quot;\nhttp://i.imgur.com/BkTvsET.png&quot; rel=&quot;nofollow&quot; target=&quot;_NEW&quot;&gt;\nhttp://i.imgur.com/BkTvsET.png&lt;/a&gt; &lt;a href=&quot;\nhttp://i.imgur.com/BDxrCaD.png&quot; rel=&quot;nofollow&quot; target=&quot;_NEW&quot;&gt;\nhttp://i.imgur.com/BDxrCaD.png&lt;/a&gt; &lt;a href=&quot;\nhttp://i.imgur.com/0R2MFgr.png&quot; rel=&quot;nofollow&quot; target=&quot;_NEW&quot;&gt;\nhttp://i.imgur.com/0R2MFgr.png&lt;/a&gt; &lt;a href=&quot;\nhttp://i.imgur.com/IXWUw40.png&quot; rel=&quot;nofollow&quot; target=&quot;_NEW&quot;&gt;\nhttp://i.imgur.com/IXWUw40.png&lt;/a&gt;","torrent":{"xt":"urn:btih:13c45cbea5a5793c7c309ef52240e821be180d50","amp;dn":"Temptation+2013+CAMRip+XviD+AC3+-+TODE","amp;tr":["udp%3A%2F%2Ftracker.openbittorrent.com%3A80","udp%3A%2F%2Fopen.demonii.com%3A1337","udp%3A%2F%2Ftracker.coppersurfer.tk%3A6969","udp%3A%2F%2Fexodus.desync.com%3A6969"],"infoHash":"13c45cbea5a5793c7c309ef52240e821be180d50","infoHashBuffer":{"type":"Buffer","data":[19,196,92,190,165,165,121,60,124,48,158,245,34,64,232,33,190,24,13,80]},"announce":[],"urlList":[]}}